<svg width="53" height="53" viewBox="0 0 53 53" fill="none" xmlns="http://www.w3.org/2000/svg">
<g clip-path="url(#clip0_108_9)">
<path d="M38.8703 38.4019C38.5948 38.6292 38.2637 38.7787 37.911 38.835C37.5584 38.8913 37.1972 38.8524 36.8646 38.7223C36.5685 38.6006 36.3056 38.41 36.0978 38.1663C34.0418 40.8441 31.1511 42.7593 27.8837 43.6086C29.7328 42.321 31.2622 40.1014 32.2876 37.2949H35.6599C35.6469 37.2355 35.621 37.1823 35.6142 37.1224L35.4379 35.7834H32.7737C33.2938 33.9337 33.6042 31.8823 33.663 29.7005H34.6364L34.4373 28.189H33.663C33.6345 27.2046 33.5527 26.2226 33.4181 25.2471C32.9363 25.3813 32.436 25.5136 31.94 25.646C32.0476 26.4722 32.1268 27.3157 32.1527 28.189H26.828L26.5212 29.7005H32.1521C32.0878 31.8903 31.7569 33.9578 31.2016 35.7834H24.836V32.4432L24.0617 32.9844C23.8372 33.1433 23.5843 33.2311 23.3245 33.2849V35.7834H16.9589C16.6787 34.851 16.4624 33.9005 16.3114 32.9386C16.1463 33.0054 15.9762 33.0728 15.8142 33.1421C15.4901 33.28 15.2007 33.4173 14.8927 33.5552C15.0281 34.3208 15.1877 35.071 15.3862 35.7834H10.558V35.7822C10.1384 36.0357 9.72676 36.3022 9.32363 36.5812C9.03687 36.7837 8.75618 36.9947 8.48193 37.2139C11.4535 42.7953 17.3275 46.6074 24.0796 46.6074C30.4118 46.6074 35.9586 43.2474 39.0768 38.2281L38.8703 38.4019ZM11.4276 37.2949H15.8729C16.9001 40.1014 18.4271 42.321 20.2768 43.6086C16.6486 42.669 13.4965 40.42 11.4276 37.2949ZM23.3245 43.2851C20.9231 42.8862 18.8284 40.6122 17.4982 37.2949H23.3245V43.2851ZM24.836 37.2949H30.6623C29.3333 40.6104 27.2361 42.8862 24.836 43.2851V37.2949Z" fill="url(#paint0_linear_108_9)"/>
<path d="M52.3986 13.101C49.9279 11.4763 44.7621 12.6229 39.031 14.8344L28.9615 5L25.5694 5.11627L33.6642 17.1183C30.3339 18.6496 27.0351 20.354 24.1427 21.9292L19.9645 18.7739L18.2291 18.9761L22.544 24.4116L22.9157 31.3431L24.3486 30.3431L25.3857 25.2119C28.5954 24.4772 32.1978 23.5668 35.7056 22.508L37.5937 36.8596L40.211 34.6981L41.2339 20.6626C46.9965 18.5185 51.6243 15.9538 52.3986 13.101Z" fill="url(#paint1_linear_108_9)"/>
<path d="M28.3809 12.8609L27.5472 11.6247C26.4049 11.3955 25.2428 11.2795 24.0778 11.2783C15.2576 11.2783 7.94761 17.7837 6.6427 26.244C7.6519 25.4858 8.68761 24.7637 9.74789 24.0788C9.97671 23.4004 10.2358 22.7349 10.5568 22.1035H12.9891C13.8883 21.5833 14.7967 21.0794 15.714 20.592H11.4263C13.4953 17.4667 16.6477 15.2176 20.2762 14.2784C19.2917 14.9648 18.4011 15.9216 17.625 17.0848C17.7468 17.0459 17.868 17.0045 17.9985 16.9902L19.7338 16.788L19.766 16.7874C20.8155 15.6018 22.0215 14.8183 23.3233 14.6031V18.8047L24.3221 19.5598C24.4965 19.4665 24.6616 19.3842 24.8347 19.2908V14.6031C26.3023 14.8461 27.6548 15.7985 28.7903 17.2531L30.7483 16.3223L28.3809 12.8609Z" fill="url(#paint2_linear_108_9)"/>
<path d="M20.5836 25.1554L17.8643 21.7305C16.017 22.6773 13.9545 23.7992 11.7992 25.1424C9.39226 26.6551 6.86531 28.4016 4.54801 30.6274C3.39771 31.7486 2.29194 32.9948 1.3952 34.4976C0.95178 35.2502 0.56711 36.074 0.302417 36.9658C0.231297 37.1841 0.183677 37.4191 0.129254 37.6467C0.100187 37.7599 0.0865817 37.8786 0.0649363 37.9949L0.00185533 38.416L0 38.9306L0.0142241 39.6888C0.0803973 40.6022 0.324063 41.5744 0.80892 42.4223C1.28265 43.2776 1.99385 43.935 2.70135 44.3568C4.14046 45.1997 5.4899 45.3376 6.65195 45.4063C8.98532 45.4774 10.7763 45.097 12.0293 44.8484C12.3624 44.7774 12.6947 44.703 13.0262 44.6252C9.38978 44.4341 7.12444 43.5621 5.90796 42.9016C5.57125 42.7363 5.25426 42.5337 4.96299 42.2974C4.8955 42.2458 4.8301 42.1915 4.76694 42.1347L4.79044 42.1329C4.71561 42.0617 4.62841 41.9949 4.56533 41.9189C4.01739 41.2639 4.00317 40.669 4.19736 39.8156C4.23075 39.7277 4.25982 39.648 4.28394 39.5651L4.43175 39.071L4.43669 39.0567C4.4503 38.9794 4.42309 39.1439 4.4268 39.1223L4.43484 39.105L4.44844 39.066L4.47565 38.9912C4.49606 38.9423 4.5072 38.8928 4.53255 38.8415C4.58141 38.7407 4.6148 38.6399 4.67356 38.5379C4.90239 38.093 5.18216 37.6763 5.50721 37.296C6.2042 36.4655 7.14732 35.6702 8.18073 34.9435C10.2661 33.4895 12.7009 32.299 15.0361 31.304C17.0671 30.4419 19.0282 29.7436 20.7982 29.1561L20.5836 25.1554Z" fill="url(#paint3_linear_108_9)"/>
</g>
<defs>
<linearGradient id="paint0_linear_108_9" x1="-3.9914" y1="26.9654" x2="23.737" y2="39.8953" gradientUnits="userSpaceOnUse">
<stop stop-color="#E90DDA"/>
<stop offset="1" stop-color="#15CFF1"/>
</linearGradient>
<linearGradient id="paint1_linear_108_9" x1="13.3994" y1="12.7347" x2="44.3674" y2="27.1753" gradientUnits="userSpaceOnUse">
<stop stop-color="#E90DDA"/>
<stop offset="1" stop-color="#15CFF1"/>
</linearGradient>
<linearGradient id="paint2_linear_108_9" x1="0.245127" y1="13.5281" x2="22.0922" y2="23.7156" gradientUnits="userSpaceOnUse">
<stop stop-color="#E90DDA"/>
<stop offset="1" stop-color="#15CFF1"/>
</linearGradient>
<linearGradient id="paint3_linear_108_9" x1="-10.1925" y1="20.1937" x2="8.65701" y2="28.9834" gradientUnits="userSpaceOnUse">
<stop stop-color="#E90DDA"/>
<stop offset="1" stop-color="#15CFF1"/>
</linearGradient>
<clipPath id="clip0_108_9">
<rect width="52.4" height="52.4" fill="white"/>
</clipPath>
</defs>
</svg>
