<svg width="220" height="42" viewBox="0 0 220 42" fill="none" xmlns="http://www.w3.org/2000/svg">
<path d="M74.8098 18.6224V14.7787C73.7597 14.4617 72.3332 14.2041 71.2831 14.2041C69.599 14.2041 67.5384 14.5409 65.8543 15.0363L65.3986 15.1552L66.0128 17.1959V27.4591H68.6282V16.8195C69.4603 16.5817 70.3915 16.443 71.2831 16.443C71.7586 16.443 72.3134 16.5024 72.8681 16.6213L73.8984 18.6224H74.8098ZM82.636 14.2041C78.9111 14.2041 76.4741 16.76 76.4741 21C76.4741 25.3787 79.2281 27.7959 83.6861 27.7959C84.9145 27.7959 86.4599 27.5185 87.5694 27.1024V24.8636C86.4401 25.24 84.9541 25.5174 83.6861 25.5174C81.1698 25.5174 79.4065 24.4475 79.1885 21.852H88.5997C88.6195 21.5746 88.6195 21.2972 88.6195 21C88.6195 16.76 86.3807 14.2041 82.636 14.2041ZM86.0438 19.732H79.2281C79.4659 17.5327 80.7736 16.3439 82.636 16.3439C84.3994 16.3439 85.7665 17.4733 86.0438 19.732ZM104.094 27.4591V25.24C103.717 25.3787 103.261 25.5174 102.806 25.5174C102.152 25.5174 101.874 25.2202 101.874 24.5862V19.0583C101.874 15.9279 99.6554 14.2041 96.0891 14.2041C94.9201 14.2041 93.4737 14.4617 92.1661 14.8183V18.6224H93.0577L94.0879 16.6808C94.7814 16.5421 95.4947 16.443 96.0891 16.443C98.2289 16.443 99.279 17.3742 99.279 19.0583V19.8112H95.7721C92.5425 19.8112 90.8386 21.4755 90.8386 23.655C90.8386 26.0127 92.7605 27.7959 96.2278 27.7959C97.5552 27.7959 98.8629 27.4393 99.913 26.9043C100.389 27.4591 101.221 27.7959 102.132 27.7959C102.826 27.7959 103.578 27.6374 104.094 27.4591ZM99.279 25.0022C98.3676 25.4381 97.2778 25.7155 96.2278 25.7155C94.3851 25.7155 93.4737 24.9428 93.4737 23.655C93.4737 22.5454 94.1672 21.852 95.7721 21.852H99.279V25.0022ZM119.449 27.4591V25.24C119.052 25.3787 118.617 25.5174 118.141 25.5174C117.507 25.5174 117.23 25.2202 117.23 24.5862V7.13086H114.614V14.5608C113.861 14.3428 112.811 14.2041 111.959 14.2041C108.096 14.2041 105.659 16.7798 105.659 21C105.659 25.1806 108.096 27.7959 111.959 27.7959C113.208 27.7959 114.337 27.4987 115.367 27.0232C115.863 27.5185 116.635 27.7959 117.467 27.7959C118.161 27.7959 118.914 27.6374 119.449 27.4591ZM114.614 25.0022C113.782 25.3193 112.95 25.5174 111.959 25.5174C109.76 25.5174 108.373 23.972 108.373 21C108.373 18.028 109.76 16.443 111.959 16.443C112.831 16.443 113.782 16.5817 114.614 16.8195V25.0022ZM132.922 14.5013H127.671V15.4325L129.395 16.2647L126.482 23.972L122.936 14.5013H120.083L125.135 26.9439L121.886 34.8692H124.6L132.922 14.5013ZM146.85 24.3088V21.9907H144.037V15.6109H141.54V21.9907H137.062C137.201 17.0572 139.975 12.7974 144.037 8.95366H140.946C136.825 13.0153 134.447 17.8299 134.447 22.4464V24.3088H141.54V27.4591H144.037V24.3088H146.85ZM158.104 27.4987V25.2202C157.589 25.4183 156.915 25.5174 156.301 25.5174C154.498 25.5174 153.705 24.6852 153.705 23.1596V16.76H158.104V14.5013H153.705V10.618L151.09 11.0142V14.5013H148.316V16.76H151.09V23.1596C151.09 26.0523 153.012 27.7959 156.301 27.7959C156.856 27.7959 157.589 27.6572 158.104 27.4987ZM170.21 18.6224V14.7787C169.14 14.4617 167.733 14.2041 166.683 14.2041C164.979 14.2041 162.938 14.5409 161.234 15.0363L160.799 15.1552L161.413 17.1959V27.4591H164.008V16.8195C164.84 16.5817 165.791 16.443 166.683 16.443C167.159 16.443 167.713 16.5024 168.268 16.6213L169.279 18.6224H170.21ZM185.129 27.4591V25.24C184.733 25.3787 184.297 25.5174 183.821 25.5174C183.187 25.5174 182.91 25.2202 182.91 24.5862V19.0583C182.91 15.9279 180.691 14.2041 177.105 14.2041C175.936 14.2041 174.509 14.4617 173.202 14.8183V18.6224H174.093L175.104 16.6808C175.797 16.5421 176.53 16.443 177.105 16.443C179.245 16.443 180.295 17.3742 180.295 19.0583V19.8112H176.808C173.558 19.8112 171.874 21.4755 171.874 23.655C171.874 26.0127 173.776 27.7959 177.243 27.7959C178.571 27.7959 179.879 27.4393 180.929 26.9043C181.404 27.4591 182.236 27.7959 183.148 27.7959C183.841 27.7959 184.594 27.6374 185.129 27.4591ZM180.295 25.0022C179.383 25.4381 178.293 25.7155 177.243 25.7155C175.421 25.7155 174.509 24.9428 174.509 23.655C174.509 22.5454 175.203 21.852 176.808 21.852H180.295V25.0022ZM198.602 14.5013H193.371V15.4325L195.115 16.2845L192.163 24.1305L188.596 14.5013H185.763L190.954 27.4591H193.391L198.602 14.5013ZM206.071 14.2041C202.347 14.2041 199.91 16.76 199.91 21C199.91 25.3787 202.664 27.7959 207.122 27.7959C208.35 27.7959 209.895 27.5185 211.005 27.1024V24.8636C209.876 25.24 208.39 25.5174 207.122 25.5174C204.605 25.5174 202.842 24.4475 202.624 21.852H212.035C212.055 21.5746 212.055 21.2972 212.055 21C212.055 16.76 209.816 14.2041 206.071 14.2041ZM209.479 19.732H202.664C202.901 17.5327 204.209 16.3439 206.071 16.3439C207.835 16.3439 209.202 17.4733 209.479 19.732ZM220 27.4591V26.5477L217.999 25.5174V7.13086H215.384V27.4591H220Z" fill="white"/>
<path d="M38.8703 33.5982C38.5948 33.8255 38.2637 33.975 37.911 34.0313C37.5584 34.0876 37.1972 34.0487 36.8646 33.9186C36.5685 33.7969 36.3056 33.6063 36.0978 33.3626C34.0418 36.0404 31.1511 37.9556 27.8837 38.8049C29.7328 37.5173 31.2622 35.2977 32.2876 32.4912H35.6599C35.6469 32.4318 35.621 32.3786 35.6142 32.3187L35.4379 30.9797H32.7737C33.2938 29.13 33.6042 27.0786 33.663 24.8968H34.6364L34.4373 23.3853H33.663C33.6345 22.4009 33.5527 21.4189 33.4181 20.4434C32.9363 20.5776 32.436 20.7099 31.94 20.8423C32.0476 21.6685 32.1268 22.512 32.1527 23.3853H26.828L26.5212 24.8968H32.1521C32.0878 27.0866 31.7569 29.1541 31.2016 30.9797H24.836V27.6395L24.0617 28.1807C23.8372 28.3396 23.5843 28.4274 23.3245 28.4812V30.9797H16.9589C16.6787 30.0473 16.4624 29.0968 16.3114 28.1349C16.1463 28.2017 15.9762 28.2691 15.8142 28.3384C15.4901 28.4763 15.2007 28.6136 14.8927 28.7515C15.0281 29.5171 15.1877 30.2673 15.3862 30.9797H10.558V30.9785C10.1384 31.232 9.72676 31.4985 9.32363 31.7775C9.03687 31.98 8.75618 32.191 8.48193 32.4102C11.4535 37.9916 17.3275 41.8037 24.0796 41.8037C30.4118 41.8037 35.9586 38.4437 39.0768 33.4244L38.8703 33.5982ZM11.4276 32.4912H15.8729C16.9001 35.2977 18.4271 37.5173 20.2768 38.8049C16.6486 37.8653 13.4965 35.6163 11.4276 32.4912V32.4912ZM23.3245 38.4814C20.9231 38.0825 18.8284 35.8085 17.4982 32.4912H23.3245V38.4814ZM24.836 32.4912H30.6623C29.3333 35.8067 27.2361 38.0825 24.836 38.4814V32.4912V32.4912Z" fill="url(#paint0_linear_101_20)"/>
<path d="M52.3986 8.29724C49.9279 6.6726 44.7621 7.81919 39.031 10.0307L28.9615 0.196289L25.5694 0.312556L33.6642 12.3146C30.3339 13.8459 27.0351 15.5503 24.1427 17.1255L19.9645 13.9702L18.2291 14.1724L22.544 19.6079L22.9157 26.5394L24.3486 25.5394L25.3857 20.4082C28.5954 19.6735 32.1978 18.7631 35.7056 17.7043L37.5937 32.0559L40.211 29.8944L41.2339 15.8589C46.9965 13.7148 51.6243 11.1501 52.3986 8.29724V8.29724Z" fill="url(#paint1_linear_101_20)"/>
<path d="M28.3809 8.0572L27.5472 6.82094C26.4049 6.59179 25.2428 6.47578 24.0778 6.47461C15.2576 6.47461 7.94761 12.98 6.6427 21.4403C7.6519 20.6821 8.68761 19.96 9.74789 19.2751C9.97671 18.5967 10.2358 17.9312 10.5568 17.2998H12.9891C13.8883 16.7796 14.7967 16.2757 15.714 15.7883H11.4263C13.4953 12.663 16.6477 10.4139 20.2762 9.47467C19.2917 10.1611 18.4011 11.1179 17.625 12.2811C17.7468 12.2422 17.868 12.2008 17.9985 12.1865L19.7338 11.9843L19.766 11.9837C20.8155 10.7981 22.0215 10.0146 23.3233 9.79935V14.001L24.3221 14.7561C24.4965 14.6628 24.6616 14.5805 24.8347 14.4871V9.79935C26.3023 10.0424 27.6548 10.9948 28.7903 12.4494L30.7483 11.5186L28.3809 8.0572V8.0572Z" fill="url(#paint2_linear_101_20)"/>
<path d="M20.5836 20.3519L17.8643 16.927C16.017 17.8738 13.9545 18.9957 11.7992 20.3389C9.39226 21.8516 6.86531 23.5981 4.54801 25.8239C3.39771 26.9451 2.29194 28.1913 1.3952 29.6941C0.95178 30.4467 0.56711 31.2705 0.302417 32.1623C0.231297 32.3806 0.183677 32.6156 0.129254 32.8432C0.100187 32.9564 0.0865817 33.0751 0.0649363 33.1914L0.00185533 33.6125L0 34.1271L0.0142241 34.8853C0.0803973 35.7987 0.324063 36.7709 0.80892 37.6188C1.28265 38.4741 1.99385 39.1315 2.70135 39.5533C4.14046 40.3962 5.4899 40.5341 6.65195 40.6028C8.98532 40.6739 10.7763 40.2935 12.0293 40.0449C12.3624 39.9739 12.6947 39.8995 13.0262 39.8217C9.38978 39.6306 7.12444 38.7586 5.90796 38.0981C5.57125 37.9328 5.25426 37.7302 4.96299 37.4939C4.8955 37.4423 4.8301 37.388 4.76694 37.3312L4.79044 37.3294C4.71561 37.2582 4.62841 37.1914 4.56533 37.1154C4.01739 36.4604 4.00317 35.8655 4.19736 35.0121C4.23075 34.9242 4.25982 34.8445 4.28394 34.7616L4.43175 34.2675L4.43669 34.2532C4.4503 34.1759 4.42309 34.3404 4.4268 34.3188L4.43484 34.3015L4.44844 34.2625L4.47565 34.1877C4.49606 34.1388 4.5072 34.0893 4.53255 34.038C4.58141 33.9372 4.6148 33.8364 4.67356 33.7344C4.90239 33.2895 5.18216 32.8728 5.50721 32.4925C6.2042 31.662 7.14732 30.8667 8.18073 30.14C10.2661 28.686 12.7009 27.4955 15.0361 26.5005C17.0671 25.6384 19.0282 24.9401 20.7982 24.3526L20.5836 20.3519V20.3519Z" fill="url(#paint3_linear_101_20)"/>
<defs>
<linearGradient id="paint0_linear_101_20" x1="-3.9914" y1="22.1617" x2="23.737" y2="35.0916" gradientUnits="userSpaceOnUse">
<stop stop-color="#E90DDA"/>
<stop offset="1" stop-color="#15CFF1"/>
</linearGradient>
<linearGradient id="paint1_linear_101_20" x1="13.3994" y1="7.93099" x2="44.3674" y2="22.3716" gradientUnits="userSpaceOnUse">
<stop stop-color="#E90DDA"/>
<stop offset="1" stop-color="#15CFF1"/>
</linearGradient>
<linearGradient id="paint2_linear_101_20" x1="0.245127" y1="8.72441" x2="22.0922" y2="18.9119" gradientUnits="userSpaceOnUse">
<stop stop-color="#E90DDA"/>
<stop offset="1" stop-color="#15CFF1"/>
</linearGradient>
<linearGradient id="paint3_linear_101_20" x1="-10.1925" y1="15.3902" x2="8.65701" y2="24.1799" gradientUnits="userSpaceOnUse">
<stop stop-color="#E90DDA"/>
<stop offset="1" stop-color="#15CFF1"/>
</linearGradient>
</defs>
</svg>
